<group>
trigger=attack
ampeg_attack=0.004000
ampeg_release=0.40000
amp_veltrack=0

<region>
sample=Harpsichord, Flemish/Sustains/High/HarpsiRH_High_Far_F#1_rr1.wav
pitch_keycenter=42
lokey=41
hikey=43
volume=-0.253976

<region>
sample=Harpsichord, Flemish/Sustains/High/HarpsiRH_High_Far_G#1_rr1.wav
pitch_keycenter=44
lokey=44
hikey=45
volume=-1.025889

<region>
sample=Harpsichord, Flemish/Sustains/High/HarpsiRH_High_Far_A#1_rr1.wav
pitch_keycenter=46
lokey=46
hikey=47
volume=1.997048

<region>
sample=Harpsichord, Flemish/Sustains/High/HarpsiRH_High_Far_C#2_rr1.wav
pitch_keycenter=49
lokey=48
hikey=50
volume=-0.448909

<region>
sample=Harpsichord, Flemish/Sustains/High/HarpsiRH_High_Far_E2_rr1.wav
pitch_keycenter=52
lokey=51
hikey=53
volume=-1.304560

<region>
sample=Harpsichord, Flemish/Sustains/High/HarpsiRH_High_Far_F#2_rr1.wav
pitch_keycenter=54
lokey=54
hikey=55
volume=-0.254181

<region>
sample=Harpsichord, Flemish/Sustains/High/HarpsiRH_High_Far_G#2_rr1.wav
pitch_keycenter=56
lokey=56
hikey=57
volume=1.151423

<region>
sample=Harpsichord, Flemish/Sustains/High/HarpsiRH_High_Far_A#2_rr1.wav
pitch_keycenter=58
lokey=58
hikey=59
volume=1.185090

<region>
sample=Harpsichord, Flemish/Sustains/High/HarpsiRH_High_Far_C#3_rr1.wav
pitch_keycenter=61
lokey=60
hikey=62
volume=1.035230

<region>
sample=Harpsichord, Flemish/Sustains/High/HarpsiRH_High_Far_E3_rr1.wav
pitch_keycenter=64
lokey=63
hikey=65
volume=-1.210866

<region>
sample=Harpsichord, Flemish/Sustains/High/HarpsiRH_High_Far_F#3_rr1.wav
pitch_keycenter=66
lokey=66
hikey=67
volume=-2.374491

<region>
sample=Harpsichord, Flemish/Sustains/High/HarpsiRH_High_Far_G#3_rr1.wav
pitch_keycenter=68
lokey=68
hikey=68
volume=2.316202

<region>
sample=Harpsichord, Flemish/Sustains/High/HarpsiRH_High_Far_A3_rr2.wav
pitch_keycenter=69
lokey=69
hikey=71
volume=-1.315981

<region>
sample=Harpsichord, Flemish/Sustains/High/HarpsiRH_High_Far_C#4_rr1.wav
pitch_keycenter=73
lokey=72
hikey=73
volume=2.781465

<region>
sample=Harpsichord, Flemish/Sustains/High/HarpsiRH_High_Far_D4_rr1.wav
pitch_keycenter=74
lokey=74
hikey=75
volume=-0.122453

<region>
sample=Harpsichord, Flemish/Sustains/High/HarpsiRH_High_Far_E4_rr1.wav
pitch_keycenter=76
lokey=76
hikey=77
volume=1.589474

<region>
sample=Harpsichord, Flemish/Sustains/High/HarpsiRH_High_Far_F#4_rr1.wav
pitch_keycenter=78
lokey=78
hikey=79
volume=-0.181269

<region>
sample=Harpsichord, Flemish/Sustains/High/HarpsiRH_High_Far_G#4_rr1.wav
pitch_keycenter=80
lokey=80
hikey=81
volume=2.440377

<region>
sample=Harpsichord, Flemish/Sustains/High/HarpsiRH_High_Far_A#4_rr1.wav
pitch_keycenter=82
lokey=82
hikey=83
volume=-5.387336

<region>
sample=Harpsichord, Flemish/Sustains/High/HarpsiRH_High_Far_C5_rr1.wav
pitch_keycenter=84
lokey=84
hikey=85
volume=2.751121

<region>
sample=Harpsichord, Flemish/Sustains/High/HarpsiRH_High_Far_D5_rr1.wav
pitch_keycenter=86
lokey=86
hikey=87
volume=3.049173

<region>
sample=Harpsichord, Flemish/Sustains/High/HarpsiRH_High_Far_E5_rr1.wav
pitch_keycenter=88
lokey=88
hikey=89
volume=-2.925343

<region>
sample=Harpsichord, Flemish/Sustains/High/HarpsiRH_High_Far_F#5_rr1.wav
pitch_keycenter=90
lokey=90
hikey=91
volume=2.881215

<region>
sample=Harpsichord, Flemish/Sustains/High/HarpsiRH_High_Far_G#5_rr1.wav
pitch_keycenter=92
lokey=92
hikey=93
volume=0.615691

<region>
sample=Harpsichord, Flemish/Sustains/High/HarpsiRH_High_Far_A#5_rr1.wav
pitch_keycenter=94
lokey=94
hikey=95
volume=-0.053052

<region>
sample=Harpsichord, Flemish/Sustains/High/HarpsiRH_High_Far_C6_rr1.wav
pitch_keycenter=96
lokey=96
hikey=96
volume=3.180666

<group>
trigger=release
//ampeg_attack=0.050000
ampeg_release=0.300000
//rt_decay=5
amp_veltrack=0

<region>
sample=Harpsichord, Flemish/Releases/High/HarpsiRH_HighRel_Far_F#1_rr1.wav
pitch_keycenter=42
lokey=41
hikey=43
offset=27
volume=-7.094404

<region>
sample=Harpsichord, Flemish/Releases/High/HarpsiRH_HighRel_Far_G#1_rr1.wav
pitch_keycenter=44
lokey=44
hikey=45
volume=-11.320696

<region>
sample=Harpsichord, Flemish/Releases/High/HarpsiRH_HighRel_Far_A#1_rr1.wav
pitch_keycenter=46
lokey=46
hikey=47
volume=2.412872

<region>
sample=Harpsichord, Flemish/Releases/High/HarpsiRH_HighRel_Far_C#2_rr1.wav
pitch_keycenter=49
lokey=48
hikey=50
volume=1.006407

<region>
sample=Harpsichord, Flemish/Releases/High/HarpsiRH_HighRel_Far_E2_rr1.wav
pitch_keycenter=52
lokey=51
hikey=53
offset=57
volume=-17.270185

<region>
sample=Harpsichord, Flemish/Releases/High/HarpsiRH_HighRel_Far_F#2_rr1.wav
pitch_keycenter=54
lokey=54
hikey=55
volume=-0.378688

<region>
sample=Harpsichord, Flemish/Releases/High/HarpsiRH_HighRel_Far_G#2_rr1.wav
pitch_keycenter=56
lokey=56
hikey=57
volume=-7.947424

<region>
sample=Harpsichord, Flemish/Releases/High/HarpsiRH_HighRel_Far_A#2_rr1.wav
pitch_keycenter=58
lokey=58
hikey=59
volume=-7.598771

<region>
sample=Harpsichord, Flemish/Releases/High/HarpsiRH_HighRel_Far_C#3_rr1.wav
pitch_keycenter=61
lokey=60
hikey=62
volume=-5.532059

<region>
sample=Harpsichord, Flemish/Releases/High/HarpsiRH_HighRel_Far_E3_rr1.wav
pitch_keycenter=64
lokey=63
hikey=65
volume=-7.546711

<region>
sample=Harpsichord, Flemish/Releases/High/HarpsiRH_HighRel_Far_F#3_rr1.wav
pitch_keycenter=66
lokey=66
hikey=67
volume=-7.171695

<region>
sample=Harpsichord, Flemish/Releases/High/HarpsiRH_HighRel_Far_G#3_rr1.wav
pitch_keycenter=68
lokey=68
hikey=68
volume=-7.389095

<region>
sample=Harpsichord, Flemish/Releases/High/HarpsiRH_HighRel_Far_A3_rr1.wav
pitch_keycenter=69
lokey=69
hikey=71
volume=-5.532790

<region>
sample=Harpsichord, Flemish/Releases/High/HarpsiRH_HighRel_Far_C#4_rr1.wav
pitch_keycenter=73
lokey=72
hikey=73
volume=-11.140133

<region>
sample=Harpsichord, Flemish/Releases/High/HarpsiRH_HighRel_Far_D4_rr1.wav
pitch_keycenter=74
lokey=74
hikey=75
volume=-8.289727

<region>
sample=Harpsichord, Flemish/Releases/High/HarpsiRH_HighRel_Far_E4_rr1.wav
pitch_keycenter=76
lokey=76
hikey=77
volume=-7.941022

<region>
sample=Harpsichord, Flemish/Releases/High/HarpsiRH_HighRel_Far_F#4_rr1.wav
pitch_keycenter=78
lokey=78
hikey=79
volume=-6.706086

<region>
sample=Harpsichord, Flemish/Releases/High/HarpsiRH_HighRel_Far_G#4_rr1.wav
pitch_keycenter=80
lokey=80
hikey=81
volume=-4.835945

<region>
sample=Harpsichord, Flemish/Releases/High/HarpsiRH_HighRel_Far_A#4_rr1.wav
pitch_keycenter=82
lokey=82
hikey=83
volume=-11.079539

<region>
sample=Harpsichord, Flemish/Releases/High/HarpsiRH_HighRel_Far_C5_rr1.wav
pitch_keycenter=84
lokey=84
hikey=85
volume=-9.678993

<region>
sample=Harpsichord, Flemish/Releases/High/HarpsiRH_HighRel_Far_D5_rr1.wav
pitch_keycenter=86
lokey=86
hikey=87
volume=-4.761131

<region>
sample=Harpsichord, Flemish/Releases/High/HarpsiRH_HighRel_Far_E5_rr1.wav
pitch_keycenter=88
lokey=88
hikey=89
volume=-8.416535

<region>
sample=Harpsichord, Flemish/Releases/High/HarpsiRH_HighRel_Far_F#5_rr1.wav
pitch_keycenter=90
lokey=90
hikey=91
volume=-7.284338

<region>
sample=Harpsichord, Flemish/Releases/High/HarpsiRH_HighRel_Far_G#5_rr1.wav
pitch_keycenter=92
lokey=92
hikey=93
volume=-6.689190

<region>
sample=Harpsichord, Flemish/Releases/High/HarpsiRH_HighRel_Far_A#5_rr1.wav
pitch_keycenter=94
lokey=94
hikey=95
volume=-10.739275

<region>
sample=Harpsichord, Flemish/Releases/High/HarpsiRH_HighRel_Far_C6_rr1.wav
pitch_keycenter=96
lokey=96
hikey=96
volume=-5.844790

